{
  "accessors": [
    {
      "bufferView": 2,
      "componentType": 5126,
      "count": 1351,
      "max": [
        125.75401306152344,
        56.361953735351562,
        270.78692626953125
      ],
      "min": [
        -212.81170654296875,
        -58.045204162597656,
        -262.3525390625
      ],
      "type": "VEC3"
    },
    {
      "bufferView": 2,
      "byteOffset": 16212,
      "componentType": 5126,
      "count": 1351,
      "max": [
        1,
        1,
        1
      ],
      "min": [
        -1,
        -1,
        -1
      ],
      "type": "VEC3"
    },
    {
      "bufferView": 3,
      "componentType": 5126,
      "count": 1351,
      "max": [
        1,
        1,
        1,
        1
      ],
      "min": [
        -1,
        -1,
        -1,
        1
      ],
      "type": "VEC4"
    },
    {
      "bufferView": 1,
      "componentType": 5126,
      "count": 1351,
      "max": [
        0.99999994039535522,
        1
      ],
      "min": [
        0,
        0
      ],
      "type": "VEC2"
    },
    {
      "bufferView": 1,
      "byteOffset": 10808,
      "componentType": 5126,
      "count": 1351,
      "max": [
        0.99999994039535522,
        1
      ],
      "min": [
        0,
        0
      ],
      "type": "VEC2"
    },
    {
      "bufferView": 0,
      "componentType": 5125,
      "count": 2136,
      "max": [
        1350
      ],
      "min": [
        0
      ],
      "type": "SCALAR"
    },
    {
      "bufferView": 2,
      "byteOffset": 32424,
      "componentType": 5126,
      "count": 90,
      "max": [
        123.17041015625,
        49.361946105957031,
        268.78692626953125
      ],
      "min": [
        -200.81172180175781,
        -51.197452545166016,
        -260.3525390625
      ],
      "type": "VEC3"
    },
    {
      "bufferView": 2,
      "byteOffset": 33504,
      "componentType": 5126,
      "count": 90,
      "max": [
        1,
        0,
        1
      ],
      "min": [
        -1,
        0,
        -1
      ],
      "type": "VEC3"
    },
    {
      "bufferView": 3,
      "byteOffset": 21616,
      "componentType": 5126,
      "count": 90,
      "max": [
        1,
        1,
        1,
        1
      ],
      "min": [
        -1,
        -1.0237256446998799e-06,
        -1,
        1
      ],
      "type": "VEC4"
    },
    {
      "bufferView": 1,
      "byteOffset": 21616,
      "componentType": 5126,
      "count": 90,
      "max": [
        0.98691815137863159,
        0.95330590009689331
      ],
      "min": [
        0.22723977267742157,
        0
      ],
      "type": "VEC2"
    },
    {
      "bufferView": 1,
      "byteOffset": 22336,
      "componentType": 5126,
      "count": 90,
      "max": [
        0.98691815137863159,
        0.95330590009689331
      ],
      "min": [
        0.22723977267742157,
        0
      ],
      "type": "VEC2"
    },
    {
      "bufferView": 0,
      "byteOffset": 8544,
      "componentType": 5125,
      "count": 132,
      "max": [
        89
      ],
      "min": [
        0
      ],
      "type": "SCALAR"
    },
    {
      "bufferView": 2,
      "byteOffset": 34584,
      "componentType": 5126,
      "count": 4,
      "max": [
        123.24581146240234,
        0,
        123.99567413330078
      ],
      "min": [
        -228.97674560546875,
        0,
        -100
      ],
      "type": "VEC3"
    },
    {
      "bufferView": 2,
      "byteOffset": 34632,
      "componentType": 5126,
      "count": 4,
      "max": [
        0,
        1,
        0
      ],
      "min": [
        0,
        1,
        0
      ],
      "type": "VEC3"
    },
    {
      "bufferView": 3,
      "byteOffset": 23056,
      "componentType": 5126,
      "count": 4,
      "max": [
        9.3725503802488674e-08,
        0,
        1,
        1
      ],
      "min": [
        0,
        0,
        1,
        1
      ],
      "type": "VEC4"
    },
    {
      "bufferView": 1,
      "byteOffset": 23056,
      "componentType": 5126,
      "count": 4,
      "max": [
        0.99999994039535522,
        0.99999994039535522
      ],
      "min": [
        0,
        0
      ],
      "type": "VEC2"
    },
    {
      "bufferView": 1,
      "byteOffset": 23088,
      "componentType": 5126,
      "count": 4,
      "max": [
        0.99999994039535522,
        0.99999994039535522
      ],
      "min": [
        0,
        0
      ],
      "type": "VEC2"
    },
    {
      "bufferView": 0,
      "byteOffset": 9072,
      "componentType": 5125,
      "count": 6,
      "max": [
        3
      ],
      "min": [
        0
      ],
      "type": "SCALAR"
    },
    {
      "bufferView": 2,
      "byteOffset": 34680,
      "componentType": 5126,
      "count": 438,
      "max": [
        166.96565246582031,
        156.33308410644531,
        250.21324157714844
      ],
      "min": [
        -176.18661499023438,
        -163.78341674804688,
        -289.78671264648438
      ],
      "type": "VEC3"
    },
    {
      "bufferView": 2,
      "byteOffset": 39936,
      "componentType": 5126,
      "count": 438,
      "max": [
        1,
        1,
        1
      ],
      "min": [
        -1,
        -1,
        -1
      ],
      "type": "VEC3"
    },
    {
      "bufferView": 3,
      "byteOffset": 23120,
      "componentType": 5126,
      "count": 438,
      "max": [
        1,
        1,
        1,
        1
      ],
      "min": [
        -1,
        -1,
        -1,
        1
      ],
      "type": "VEC4"
    },
    {
      "bufferView": 1,
      "byteOffset": 23120,
      "componentType": 5126,
      "count": 438,
      "max": [
        0.99999994039535522,
        0.97653335332870483
      ],
      "min": [
        0,
        0
      ],
      "type": "VEC2"
    },
    {
      "bufferView": 1,
      "byteOffset": 26624,
      "componentType": 5126,
      "count": 438,
      "max": [
        0.99999994039535522,
        0.97653335332870483
      ],
      "min": [
        0,
        0
      ],
      "type": "VEC2"
    },
    {
      "bufferView": 0,
      "byteOffset": 9096,
      "componentType": 5125,
      "count": 732,
      "max": [
        437
      ],
      "min": [
        0
      ],
      "type": "SCALAR"
    },
    {
      "bufferView": 2,
      "byteOffset": 45192,
      "componentType": 5126,
      "count": 212,
      "max": [
        169.04399108886719,
        82.313301086425781,
        252.09312438964844
      ],
      "min": [
        -103.03433990478516,
        -162.82093811035156,
        -291.66656494140625
      ],
      "type": "VEC3"
    },
    {
      "bufferView": 2,
      "byteOffset": 47736,
      "componentType": 5126,
      "count": 212,
      "max": [
        1,
        1,
        1
      ],
      "min": [
        -1,
        -1,
        -1
      ],
      "type": "VEC3"
    },
    {
      "bufferView": 3,
      "byteOffset": 30128,
      "componentType": 5126,
      "count": 212,
      "max": [
        1,
        1,
        1,
        1
      ],
      "min": [
        -1,
        -1,
        -1,
        1
      ],
      "type": "VEC4"
    },
    {
      "bufferView": 1,
      "byteOffset": 30128,
      "componentType": 5126,
      "count": 212,
      "max": [
        0.99973857402801514,
        0.99999994039535522
      ],
      "min": [
        0.42168691754341125,
        0
      ],
      "type": "VEC2"
    },
    {
      "bufferView": 1,
      "byteOffset": 31824,
      "componentType": 5126,
      "count": 212,
      "max": [
        0.99973857402801514,
        0.99999994039535522
      ],
      "min": [
        0.42168691754341125,
        0
      ],
      "type": "VEC2"
    },
    {
      "bufferView": 0,
      "byteOffset": 12024,
      "componentType": 5125,
      "count": 324,
      "max": [
        211
      ],
      "min": [
        0
      ],
      "type": "SCALAR"
    },
    {
      "bufferView": 2,
      "byteOffset": 50280,
      "componentType": 5126,
      "count": 64,
      "max": [
        166.96565246582031,
        -113.78341674804688,
        250.21324157714844
      ],
      "min": [
        -173.03433227539062,
        -163.78341674804688,
        -289.78671264648438
      ],
      "type": "VEC3"
    },
    {
      "bufferView": 2,
      "byteOffset": 51048,
      "componentType": 5126,
      "count": 64,
      "max": [
        1,
        0,
        1
      ],
      "min": [
        -1,
        0,
        -1
      ],
      "type": "VEC3"
    },
    {
      "bufferView": 3,
      "byteOffset": 33520,
      "componentType": 5126,
      "count": 64,
      "max": [
        1,
        1,
        1.1920940323761897e-06,
        1
      ],
      "min": [
        -1,
        -1,
        -9.3994168537392397e-07,
        1
      ],
      "type": "VEC4"
    },
    {
      "bufferView": 1,
      "byteOffset": 33520,
      "componentType": 5126,
      "count": 64,
      "max": [
        0.96843999624252319,
        0.96419274806976318
      ],
      "min": [
        0,
        0
      ],
      "type": "VEC2"
    },
    {
      "bufferView": 1,
      "byteOffset": 34032,
      "componentType": 5126,
      "count": 64,
      "max": [
        0.96843999624252319,
        0.96419274806976318
      ],
      "min": [
        0,
        0
      ],
      "type": "VEC2"
    },
    {
      "bufferView": 0,
      "byteOffset": 13320,
      "componentType": 5125,
      "count": 120,
      "max": [
        63
      ],
      "min": [
        0
      ],
      "type": "SCALAR"
    }
  ],
  "asset": {
    "extras": {
      "author": "Gunnar Correa (https://sketchfab.com/gunnarcorrea)",
      "license": "CC-BY-4.0 (http://creativecommons.org/licenses/by/4.0/)",
      "source": "https://sketchfab.com/3d-models/old-house-fb4b8297df51479a8bda0ccd2f51d4a2",
      "title": "Old House"
    },
    "generator": "Sketchfab-4.78.0",
    "version": "2.0"
  },
  "bufferViews": [
    {
      "buffer": 0,
      "byteLength": 13800,
      "byteOffset": 0,
      "name": "floatBufferViews",
      "target": 34963
    },
    {
      "buffer": 0,
      "byteLength": 34544,
      "byteOffset": 13800,
      "byteStride": 8,
      "name": "floatBufferViews",
      "target": 34962
    },
    {
      "buffer": 0,
      "byteLength": 51816,
      "byteOffset": 48344,
      "byteStride": 12,
      "name": "floatBufferViews",
      "target": 34962
    },
    {
      "buffer": 0,
      "byteLength": 34544,
      "byteOffset": 100160,
      "byteStride": 16,
      "name": "floatBufferViews",
      "target": 34962
    }
  ],
  "buffers": [
    {
      "byteLength": 134704,
      "uri": "scene.bin"
    }
  ],
  "images": [
    {
      "uri": "textures/Parede_normal.png"
    },
    {
      "uri": "textures/Parede_baseColor.png"
    },
    {
      "uri": "textures/Vidro_baseColor.png"
    },
    {
      "uri": "textures/ParedeAzul_normal.png"
    },
    {
      "uri": "textures/ParedeAzul_baseColor.png"
    },
    {
      "uri": "textures/Chao_normal.png"
    },
    {
      "uri": "textures/Chao_baseColor.png"
    },
    {
      "uri": "textures/Madeira_normal.png"
    },
    {
      "uri": "textures/Madeira_baseColor.png"
    }
  ],
  "materials": [
    {
      "doubleSided": true,
      "emissiveFactor": [
        0,
        0,
        0
      ],
      "name": "Madeira",
      "normalTexture": {
        "index": 7,
        "scale": 0.27610518290000002,
        "texCoord": 0
      },
      "pbrMetallicRoughness": {
        "baseColorFactor": [
          1,
          1,
          1,
          1
        ],
        "baseColorTexture": {
          "index": 8,
          "texCoord": 0
        },
        "metallicFactor": 0,
        "roughnessFactor": 0.82394172570000002
      }
    },
    {
      "alphaMode": "BLEND",
      "doubleSided": true,
      "emissiveFactor": [
        0,
        0,
        0
      ],
      "name": "Vidro",
      "pbrMetallicRoughness": {
        "baseColorFactor": [
          1,
          1,
          1,
          0.41901676830000001
        ],
        "baseColorTexture": {
          "index": 2,
          "texCoord": 0
        },
        "metallicFactor": 0,
        "roughnessFactor": 0.82394172570000002
      }
    },
    {
      "doubleSided": true,
      "emissiveFactor": [
        0,
        0,
        0
      ],
      "name": "Chao",
      "normalTexture": {
        "index": 5,
        "scale": 0.58708079270000002,
        "texCoord": 0
      },
      "pbrMetallicRoughness": {
        "baseColorFactor": [
          1,
          1,
          1,
          1
        ],
        "baseColorTexture": {
          "index": 6,
          "texCoord": 0
        },
        "metallicFactor": 0,
        "roughnessFactor": 0.82394172570000002
      }
    },
    {
      "doubleSided": true,
      "emissiveFactor": [
        0,
        0,
        0
      ],
      "name": "Parede",
      "normalTexture": {
        "index": 0,
        "scale": 1,
        "texCoord": 0
      },
      "pbrMetallicRoughness": {
        "baseColorFactor": [
          1,
          1,
          1,
          1
        ],
        "baseColorTexture": {
          "index": 1,
          "texCoord": 0
        },
        "metallicFactor": 0,
        "roughnessFactor": 0.82394172570000002
      }
    },
    {
      "doubleSided": true,
      "emissiveFactor": [
        0,
        0,
        0
      ],
      "name": "ParedeAzul",
      "normalTexture": {
        "index": 3,
        "scale": 1,
        "texCoord": 0
      },
      "pbrMetallicRoughness": {
        "baseColorFactor": [
          1,
          1,
          1,
          1
        ],
        "baseColorTexture": {
          "index": 4,
          "texCoord": 0
        },
        "metallicFactor": 0,
        "roughnessFactor": 0.82394172570000002
      }
    }
  ],
  "meshes": [
    {
      "name": "Janelas_Madeira_0",
      "primitives": [
        {
          "attributes": {
            "NORMAL": 1,
            "POSITION": 0,
            "TANGENT": 2,
            "TEXCOORD_0": 3,
            "TEXCOORD_1": 4
          },
          "indices": 5,
          "material": 0,
          "mode": 4
        }
      ]
    },
    {
      "name": "Janelas_Vidro_0",
      "primitives": [
        {
          "attributes": {
            "NORMAL": 7,
            "POSITION": 6,
            "TANGENT": 8,
            "TEXCOORD_0": 9,
            "TEXCOORD_1": 10
          },
          "indices": 11,
          "material": 1,
          "mode": 4
        }
      ]
    },
    {
      "name": "Chao_Chao_0",
      "primitives": [
        {
          "attributes": {
            "NORMAL": 13,
            "POSITION": 12,
            "TANGENT": 14,
            "TEXCOORD_0": 15,
            "TEXCOORD_1": 16
          },
          "indices": 17,
          "material": 2,
          "mode": 4
        }
      ]
    },
    {
      "name": "Casa_Parede_0",
      "primitives": [
        {
          "attributes": {
            "NORMAL": 19,
            "POSITION": 18,
            "TANGENT": 20,
            "TEXCOORD_0": 21,
            "TEXCOORD_1": 22
          },
          "indices": 23,
          "material": 3,
          "mode": 4
        }
      ]
    },
    {
      "name": "Casa_Madeira_0",
      "primitives": [
        {
          "attributes": {
            "NORMAL": 25,
            "POSITION": 24,
            "TANGENT": 26,
            "TEXCOORD_0": 27,
            "TEXCOORD_1": 28
          },
          "indices": 29,
          "material": 0,
          "mode": 4
        }
      ]
    },
    {
      "name": "Casa_ParedeAzul_0",
      "primitives": [
        {
          "attributes": {
            "NORMAL": 31,
            "POSITION": 30,
            "TANGENT": 32,
            "TEXCOORD_0": 33,
            "TEXCOORD_1": 34
          },
          "indices": 35,
          "material": 4,
          "mode": 4
        }
      ]
    }
  ],
  "nodes": [
    {
      "children": [
        1
      ],
      "name": "RootNode (gltf orientation matrix)",
      "rotation": [
        -0.70710678118654746,
        -0,
        -0,
        0.70710678118654757
      ]
    },
    {
      "children": [
        2
      ],
      "name": "RootNode (model correction matrix)"
    },
    {
      "children": [
        3
      ],
      "matrix": [
        1,
        0,
        0,
        0,
        0,
        0,
        1,
        0,
        0,
        -1,
        0,
        0,
        0,
        0,
        0,
        1
      ],
      "name": "de64c556ccf046e081b75778f86a0a34.fbx"
    },
    {
      "children": [
        4,
        7,
        9
      ],
      "name": "RootNode"
    },
    {
      "children": [
        5,
        6
      ],
      "matrix": [
        5.84439100097445e-08,
        0,
        0.77411305904388206,
        0,
        0,
        1,
        0,
        0,
        -0.99999999999999711,
        0,
        7.5497899598708784e-08,
        0,
        -65.638389587402344,
        84.308219909667969,
        218.28572082519531,
        1
      ],
      "name": "Janelas"
    },
    {
      "mesh": 0,
      "name": "Janelas_Madeira_0"
    },
    {
      "mesh": 1,
      "name": "Janelas_Vidro_0"
    },
    {
      "children": [
        8
      ],
      "matrix": [
        1.4653521776199341,
        0,
        0,
        0,
        0,
        1.4653521776199341,
        0,
        0,
        0,
        0,
        1.4653521776199341,
        0,
        7.1950254440307617,
        -98.298789978027344,
        131.1871337890625,
        1
      ],
      "name": "Chao"
    },
    {
      "mesh": 2,
      "name": "Chao_Chao_0"
    },
    {
      "children": [
        10,
        11,
        12
      ],
      "matrix": [
        7.5497899598708784e-08,
        0,
        -0.99999999999999711,
        0,
        0,
        1,
        0,
        0,
        0.99999999999999711,
        0,
        7.5497899598708784e-08,
        0,
        -50.213241577148438,
        63.783420562744141,
        146.96566772460938,
        1
      ],
      "name": "Casa"
    },
    {
      "mesh": 3,
      "name": "Casa_Parede_0"
    },
    {
      "mesh": 4,
      "name": "Casa_Madeira_0"
    },
    {
      "mesh": 5,
      "name": "Casa_ParedeAzul_0"
    }
  ],
  "samplers": [
    {
      "magFilter": 9729,
      "minFilter": 9987,
      "wrapS": 10497,
      "wrapT": 10497
    }
  ],
  "scene": 0,
  "scenes": [
    {
      "name": "OSG_Scene",
      "nodes": [
        0
      ]
    }
  ],
  "textures": [
    {
      "sampler": 0,
      "source": 0
    },
    {
      "sampler": 0,
      "source": 1
    },
    {
      "sampler": 0,
      "source": 2
    },
    {
      "sampler": 0,
      "source": 3
    },
    {
      "sampler": 0,
      "source": 4
    },
    {
      "sampler": 0,
      "source": 5
    },
    {
      "sampler": 0,
      "source": 6
    },
    {
      "sampler": 0,
      "source": 7
    },
    {
      "sampler": 0,
      "source": 8
    }
  ]
}

